Coordinates
version=1
nRows=5
nColumns=40
inDegrees=yes

Units are S.I. units (second, meters, Newtons, ...)
Angles are in degrees.

endheader
time	pelvis_tilt	pelvis_list	pelvis_rotation	pelvis_tx	pelvis_ty	pelvis_tz	hip_flexion_r	hip_adduction_r	hip_rotation_r	knee_angle_r	knee_angle_r_beta	ankle_angle_r	subtalar_angle_r	mtp_angle_r	hip_flexion_l	hip_adduction_l	hip_rotation_l	knee_angle_l	knee_angle_l_beta	ankle_angle_l	subtalar_angle_l	mtp_angle_l	lumbar_extension	lumbar_bending	lumbar_rotation	arm_flex_r	arm_add_r	arm_rot_r	elbow_flex_r	pro_sup_r	wrist_flex_r	wrist_dev_r	arm_flex_l	arm_add_l	arm_rot_l	elbow_flex_l	pro_sup_l	wrist_flex_l	wrist_dev_l
     48.24500000	     -4.00941388	     -6.15212951	      5.95699754	      0.80519724	      0.92067436	      0.48776278	      0.66902664	      4.90825772	    -19.07569644	     11.15964148	     11.15964148	     16.22590620	      3.86306894	     -5.20254846	     31.66812831	     -8.10176592	     -3.31900723	     17.00363746	     17.00363746	      5.08867969	     -5.90955214	      7.10453825	     -9.32146502	      8.43459952	      3.73052490	     41.86196076	    -16.04861888	      1.13734610	     88.14434374	     44.40461550	      0.00000000	      0.00000000	    -15.76862977	     -7.48015392	      4.21018918	     34.30547912	     45.13189213	      0.00000000	      0.00000000
     48.25821429	     -3.99712912	     -6.10240326	      5.75467614	      0.80673821	      0.91933920	      0.48646988	      0.07049094	      4.81949327	    -18.78806413	     11.18813095	     11.18813095	     16.74544124	      3.85878441	     -5.27390934	     31.58705337	     -8.10851030	     -3.53037556	     17.97357050	     17.97357050	      4.25286716	     -6.57600343	      7.07036160	     -9.10988990	      8.10898533	      3.65355671	     41.84166882	    -15.64255054	      1.30265523	     88.58885631	     44.38968169	      0.00000000	      0.00000000	    -15.52401890	     -7.65718884	      4.17492405	     34.35808481	     45.14248527	      0.00000000	      0.00000000
     48.27142857	     -4.04318400	     -6.11216046	      5.57861214	      0.80830889	      0.91779816	      0.48484850	     -0.34975480	      4.75903188	    -18.24167186	     11.43906673	     11.43906673	     17.46949635	      3.42093628	     -4.69788902	     31.46674216	     -8.00238812	     -3.05620603	     18.72811668	     18.72811668	      2.56080835	     -8.33938293	      5.63867510	     -8.90050643	      7.96673785	      3.76315160	     41.21017685	    -15.76868891	      1.56544796	     90.74406307	     44.34763711	      0.00000000	      0.00000000	    -15.24218710	     -7.80579437	      3.75051461	     34.77108407	     45.21986203	      0.00000000	      0.00000000
     48.28464286	     -4.06819015	     -6.08053662	      5.35900891	      0.81003250	      0.91628842	      0.48321872	     -0.77656203	      4.61618974	    -17.82655196	     11.75149426	     11.75149426	     18.11142123	      3.17271181	     -4.38998187	     31.40150209	     -7.95274037	     -2.88743914	     19.72777522	     19.72777522	      1.52533883	     -9.50556292	      4.88228131	     -8.65149279	      7.71751465	      3.75460966	     40.68428487	    -15.63386094	      1.70445550	     91.75285882	     44.33412672	      0.00000000	      0.00000000	    -14.91255034	     -7.95015781	      3.44288829	     34.90226035	     45.27443780	      0.00000000	      0.00000000
     48.29785714	     -4.00482470	     -6.02776663	      5.14542791	      0.81173846	      0.91499448	      0.48145333	     -1.25494481	      4.43180650	    -17.41296617	     12.12645169	     12.12645169	     18.62041852	      2.93963283	     -4.31071829	     31.31060057	     -7.89954188	     -2.70978435	     20.87175128	     20.87175128	      0.93904120	    -10.45411059	      4.61816173	     -8.53703287	      7.44388199	      3.64616543	     40.23096946	    -15.47016630	      1.88291641	     92.28915572	     44.31874665	      0.00000000	      0.00000000	    -14.51438566	     -8.12015035	      3.24993164	     35.03915494	     45.30818789	      0.00000000	      0.00000000
